<?xml version="1.0" encoding="utf-8"?>
<!-- Generator: Adobe Illustrator 24.1.0, SVG Export Plug-In . SVG Version: 6.00 Build 0)  -->
<svg version="1.1" xmlns="http://www.w3.org/2000/svg" xmlns:xlink="http://www.w3.org/1999/xlink" x="0px" y="0px"
	 viewBox="0 0 278 277.76" style="enable-background:new 0 0 278 277.76;" xml:space="preserve">
<style type="text/css">
	.st0{display:none;}
	.st1{display:inline;fill-rule:evenodd;clip-rule:evenodd;stroke:#000000;stroke-miterlimit:10;}
	.st2{fill-rule:evenodd;clip-rule:evenodd;fill:#999999;}
</style>
<g id="Layer_3" class="st0">
	<rect x="0.5" y="0.5" class="st1" width="277" height="276.76"/>
</g>
<g id="Layer_1">
	<path class="st2" d="M87.31,117.42l10.85,18.82l10.63,18.44l10.89,18.89c19.46-33.7,38.84-67.38,58.26-101h0.06
		c4.55,0,8.46,2.26,10.73,6.2c2.28,3.94,2.28,8.45,0,12.39l-58.27,100.92c-2.28,3.94-6.18,6.2-10.73,6.2
		c-4.55,0-8.46-2.26-10.73-6.2L29.25,53.98c-2.28-3.94-2.28-8.45,0-12.39c2.28-3.94,6.18-6.2,10.73-6.2H242.3
		c4.55,0,8.46,2.26,10.73,6.2c2.28,3.94,2.28,8.45,0,12.39L151.87,229.19c-2.28,3.94-6.18,6.2-10.73,6.2
		c-4.55,0-8.46-2.26-10.73-6.2l0,0L231.56,53.98H50.73l25.9,44.93L87.31,117.42L87.31,117.42z M103.85,126.37
		c10.27-17.81,20.53-35.61,30.79-53.39l0.16,0c4.48-0.09,8.36,2.08,10.64,5.94c2.28,3.86,2.3,8.3,0.06,12.18l-31.01,53.72
		L103.85,126.37L103.85,126.37z M82.32,89.04c3.09-5.35,6.18-10.71,9.27-16.06l0.22-0.01c4.48-0.08,8.36,2.09,10.64,5.94
		c2.28,3.85,2.29,8.3,0.06,12.18L93,107.56L82.32,89.04L82.32,89.04z"/>
</g>
</svg>
