<?xml version="1.0" encoding="utf-8"?>
<!-- Generator: Adobe Illustrator 24.1.0, SVG Export Plug-In . SVG Version: 6.00 Build 0)  -->
<svg version="1.1" xmlns="http://www.w3.org/2000/svg" xmlns:xlink="http://www.w3.org/1999/xlink" x="0px" y="0px"
	 viewBox="0 0 1461.35 277.76" style="enable-background:new 0 0 1461.35 277.76;" xml:space="preserve">
<style type="text/css">
	.st0{display:none;}
	.st1{fill:#1A0B2D;}
	.st2{font-family:'Lato-Bold';}
	.st3{font-size:130px;}
	.st4{fill-rule:evenodd;clip-rule:evenodd;fill:#1A0B2D;}
</style>
<g id="Layer_3" class="st0">
</g>
<g id="Layer_1">
	<text transform="matrix(1 0 0 1 344.2598 174.3783)" class="st1 st2 st3">AgileData.io</text>
	<path class="st4" d="M131.18,189.22L150,178.37l18.44-10.63l18.89-10.89c-33.7-19.46-67.38-38.84-101-58.26v-0.06
		c0-4.55,2.26-8.46,6.2-10.73c3.94-2.28,8.45-2.28,12.39,0l100.92,58.27c3.94,2.28,6.2,6.18,6.2,10.73c0,4.55-2.26,8.46-6.2,10.73
		L67.73,247.28c-3.94,2.28-8.45,2.28-12.39,0c-3.94-2.28-6.2-6.18-6.2-10.73V34.23c0-4.55,2.26-8.46,6.2-10.73
		c3.94-2.28,8.45-2.28,12.39,0l175.21,101.16c3.94,2.28,6.2,6.18,6.2,10.73c0,4.55-2.26,8.46-6.2,10.73l0,0L67.73,44.96v180.83
		l44.93-25.9L131.18,189.22L131.18,189.22z M140.12,172.68c-17.81-10.27-35.61-20.53-53.39-30.79l0-0.16
		c-0.09-4.48,2.08-8.36,5.94-10.64c3.86-2.28,8.3-2.3,12.18-0.06l53.72,31.01L140.12,172.68L140.12,172.68z M102.79,194.2
		c-5.35-3.09-10.71-6.18-16.06-9.27l-0.01-0.22c-0.08-4.48,2.09-8.36,5.94-10.64c3.85-2.28,8.3-2.29,12.18-0.06l16.46,9.5
		L102.79,194.2L102.79,194.2z"/>
</g>
</svg>
