<?xml version="1.0" encoding="UTF-8" standalone="no"?>
<!-- Generator: Adobe Illustrator 24.1.0, SVG Export Plug-In . SVG Version: 6.00 Build 0)  -->

<svg
   xmlns:dc="http://purl.org/dc/elements/1.1/"
   xmlns:cc="http://creativecommons.org/ns#"
   xmlns:rdf="http://www.w3.org/1999/02/22-rdf-syntax-ns#"
   xmlns:svg="http://www.w3.org/2000/svg"
   xmlns="http://www.w3.org/2000/svg"
   xmlns:sodipodi="http://sodipodi.sourceforge.net/DTD/sodipodi-0.dtd"
   xmlns:inkscape="http://www.inkscape.org/namespaces/inkscape"
   version="1.1"
   x="0px"
   y="0px"
   viewBox="0 0 278 277.76"
   style="enable-background:new 0 0 278 277.76;"
   xml:space="preserve"
   id="svg10"
   sodipodi:docname="agiledata-logo-icon-white.svg"
   inkscape:version="0.92.4 5da689c313, 2019-01-14"><metadata
   id="metadata16"><rdf:RDF><cc:Work
       rdf:about=""><dc:format>image/svg+xml</dc:format><dc:type
         rdf:resource="http://purl.org/dc/dcmitype/StillImage" /><dc:title></dc:title></cc:Work></rdf:RDF></metadata><defs
   id="defs14" /><sodipodi:namedview
   pagecolor="#ffffff"
   bordercolor="#666666"
   borderopacity="1"
   objecttolerance="10"
   gridtolerance="10"
   guidetolerance="10"
   inkscape:pageopacity="0"
   inkscape:pageshadow="2"
   inkscape:window-width="1351"
   inkscape:window-height="708"
   id="namedview12"
   showgrid="false"
   inkscape:zoom="1"
   inkscape:cx="-208.14136"
   inkscape:cy="138.88"
   inkscape:window-x="80"
   inkscape:window-y="0"
   inkscape:window-maximized="0"
   inkscape:current-layer="svg10" />
<style
   type="text/css"
   id="style2">
	.st0{display:none;}
	.st1{display:inline;fill-rule:evenodd;clip-rule:evenodd;stroke:#000000;stroke-miterlimit:10;}
	.st2{fill-rule:evenodd;clip-rule:evenodd;fill:#999999;}
</style>
<g
   id="Layer_3"
   class="st0">
	<rect
   x="0.5"
   y="0.5"
   class="st1"
   width="277"
   height="276.76"
   id="rect4" />
</g>
<g
   id="Layer_1"
   transform="rotate(-90,141.14,135.39)"
   style="fill:#fefefe;fill-opacity:1">
	<path
   class="st2"
   d="m 87.31,117.42 10.85,18.82 10.63,18.44 10.89,18.89 c 19.46,-33.7 38.84,-67.38 58.26,-101 H 178 c 4.55,0 8.46,2.26 10.73,6.2 2.28,3.94 2.28,8.45 0,12.39 l -58.27,100.92 c -2.28,3.94 -6.18,6.2 -10.73,6.2 -4.55,0 -8.46,-2.26 -10.73,-6.2 L 29.25,53.98 c -2.28,-3.94 -2.28,-8.45 0,-12.39 2.28,-3.94 6.18,-6.2 10.73,-6.2 H 242.3 c 4.55,0 8.46,2.26 10.73,6.2 2.28,3.94 2.28,8.45 0,12.39 L 151.87,229.19 c -2.28,3.94 -6.18,6.2 -10.73,6.2 -4.55,0 -8.46,-2.26 -10.73,-6.2 v 0 L 231.56,53.98 H 50.73 l 25.9,44.93 z m 16.54,8.95 c 10.27,-17.81 20.53,-35.61 30.79,-53.39 h 0.16 c 4.48,-0.09 8.36,2.08 10.64,5.94 2.28,3.86 2.3,8.3 0.06,12.18 l -31.01,53.72 z M 82.32,89.04 c 3.09,-5.35 6.18,-10.71 9.27,-16.06 l 0.22,-0.01 c 4.48,-0.08 8.36,2.09 10.64,5.94 2.28,3.85 2.29,8.3 0.06,12.18 L 93,107.56 Z"
   id="path7"
   inkscape:connector-curvature="0"
   style="clip-rule:evenodd;fill:#fefefe;fill-rule:evenodd;fill-opacity:1" />
</g>
</svg>